<?xml version="1.0" encoding="UTF-8"?>
<!DOCTYPE svg PUBLIC "-//W3C//DTD SVG 1.1//EN" "http://www.w3.org/Graphics/SVG/1.1/DTD/svg11.dtd">
<!-- Creator: CorelDRAW 2020 -->
<svg xmlns="http://www.w3.org/2000/svg" xml:space="preserve" width="121.92mm" height="76.1998mm" version="1.1" style="shape-rendering:geometricPrecision; text-rendering:geometricPrecision; image-rendering:optimizeQuality; fill-rule:evenodd; clip-rule:evenodd"
viewBox="0 0 12191.98 7619.98"
 xmlns:xlink="http://www.w3.org/1999/xlink"
 xmlns:xodm="http://www.corel.com/coreldraw/odm/2003">
 <defs>
  <style type="text/css">
   <![CDATA[
    .fil0 {fill:#434242}
   ]]>
  </style>
 </defs>
 <g id="Layer_x0020_1">
  <metadata id="CorelCorpID_0Corel-Layer"/>
  <g id="_895658712">
   <path class="fil0" d="M-3055.75 -17382.42l3768.22 0c380.15,0 691.16,311.01 691.16,691.15l0 3768.22c0,380.15 -311.01,691.16 -691.16,691.16l-3768.22 0c-380.14,0 -691.15,-311.01 -691.15,-691.16l0 -3768.22c0,-380.14 311.01,-691.15 691.15,-691.15zm262.14 539.97l3243.94 0c227.34,0 413.32,185.99 413.32,413.32l0 3243.94c0,227.34 -185.98,413.32 -413.32,413.32l-3243.94 0c-227.33,0 -413.32,-185.98 -413.32,-413.32l0 -3243.94c0,-227.33 185.99,-413.32 413.32,-413.32z"/>
   <path class="fil0" d="M496.8 -16839.79l-3701.07 3701.07c21.55,190.4 173.8,342.64 364.19,364.2l1409.6 -1409.6 2294.13 0 0 -515.05 -1779.08 0 1776.43 -1776.43c-21.56,-190.39 -173.81,-342.64 -364.2,-364.19z"/>
  </g>
 </g>
</svg>
