<?xml version="1.0" encoding="utf-8"?>
<!-- Generator: Adobe Illustrator 14.0.0, SVG Export Plug-In  -->
<!DOCTYPE svg PUBLIC "-//W3C//DTD SVG 1.1//EN" "http://www.w3.org/Graphics/SVG/1.1/DTD/svg11.dtd" [
	<!ENTITY ns_flows "http://ns.adobe.com/Flows/1.0/">
]>
<svg version="1.1"
	 xmlns="http://www.w3.org/2000/svg" xmlns:xlink="http://www.w3.org/1999/xlink" xmlns:a="http://ns.adobe.com/AdobeSVGViewerExtensions/3.0/"
	 x="0px" y="0px" width="500px" height="500px" viewBox="0 0 500 500" enable-background="new 0 0 500 500" xml:space="preserve">
<defs>
</defs>
<rect fill="#D70033" width="500" height="500"/>
<path fill="#FFFFFF" d="M380.287,247.862c-8.566-2.835-20.48-5.817-25.281-7.375c-3.217-1.097-4.641-3.103-4.641-5.697
	c0-3.504,4.279-5.703,9.414-5.951c8.611,0.254,11.014,4.935,11.494,8.512h29.533c0.254-20.219-16.676-33.894-41.027-33.894
	c-17.959,0-30.236,6.833-36.186,16.736c-6.688-10.27-19.859-16.736-36.307-16.736c-17.279,0-29.268,6.673-35.439,15.988
	c-7.073-9.154-18.801-14.971-32.929-14.971h-47.854v15.445c-6.699-10.203-19.725-16.462-36.093-16.462
	c-25.174,0.027-38.908,13.875-40.192,29.909c0,9.989,4.641,18.788,12.169,25.221c4.3,3.711,9.555,6.606,15.44,8.532
	c9.381,3.336,16.595,5.582,19.089,6.659c4.835,2.039,7.85,3.33,7.85,7.753c0,4.841-5.736,6.887-11.34,7.087
	c-7.749-0.093-15.599-3.918-15.459-11.897l-31.119-0.04c1.652,20.617,21.979,36.544,46.016,36.998
	c12.998-0.16,25.361-3.852,33.619-11.446l0.02,9.748h30.65v-28.697l0.021-5.139l18.006,0.04c15.847-0.261,28.537-8.23,34.943-19.598
	c0.48-0.883,0.949-1.806,1.357-2.715c0.93,0.95,1.846,1.872,2.861,2.715c4.406,3.744,9.803,6.566,15.826,8.532
	c9.395,3.336,16.59,5.582,19.104,6.659c4.834,2.039,7.816,3.33,7.816,7.753c0,4.841-5.703,6.887-11.332,7.087
	c-7.75-0.093-15.588-3.918-15.439-11.897l-31.139-0.04c1.652,20.617,22.018,36.544,46.028,36.998
	c14.584-0.16,28.029-4.399,36.742-14.87c8.553,8.893,18.797,14.603,33.037,14.87c22.688-0.268,46.076-11.22,46.465-35.294
	c-0.047-7.615-2.174-14.416-6.828-19.798C394.996,253.738,388.818,250.042,380.287,247.862z M171.064,244.693l-0.02,10.685
	c-3.918-3.236-9.061-5.838-15.56-7.516c-8.559-2.835-20.493-5.817-25.301-7.375c-3.223-1.097-4.66-3.103-4.66-5.697
	c0-3.504,4.326-5.703,9.447-5.951c8.612,0.254,10.986,4.935,11.487,8.512h24.605V244.693z M218.103,252.816h-16.389v-22.975h16.389
	c6.205,0,11.199,5.169,11.199,11.508C229.302,247.694,224.308,252.816,218.103,252.816z M362.801,288.618
	c-7.742-0.093-15.611-3.918-15.471-11.897l-13.881-0.04c-0.367-6.921-2.469-13.1-6.781-18.094
	c-4.158-4.849-10.316-8.559-18.814-10.725c-8.605-2.835-20.494-5.817-25.32-7.375c-3.217-1.097-4.674-3.103-4.674-5.697
	c0-3.504,4.332-5.703,9.473-5.951c8.586,0.254,10.98,4.935,11.441,8.512h20.855c1.09,8.345,5.488,15.672,12.055,21.236
	c4.34,3.711,9.635,6.606,15.506,8.532c9.4,3.336,16.607,5.582,19.096,6.659c4.855,2.039,7.863,3.33,7.863,7.753
	C374.148,286.372,368.404,288.418,362.801,288.618z"/>
<path fill="#FFFFFF" d="M409.459,221.799c-4.232,0-7.643,3.403-7.643,7.602c0,4.239,3.41,7.643,7.643,7.643
	c4.186,0,7.609-3.404,7.609-7.643C417.068,225.202,413.645,221.799,409.459,221.799z M409.459,236.134
	c-3.697,0-6.721-3.002-6.721-6.733c0-3.71,3.023-6.687,6.721-6.687s6.693,2.976,6.693,6.687
	C416.152,233.132,413.156,236.134,409.459,236.134z"/>
<path fill="#FFFFFF" d="M413.371,227.415c0-0.742-0.328-1.498-0.943-1.845c-0.648-0.381-1.383-0.428-2.1-0.428h-3.711v8.532h1.051
	v-3.932h1.904l2.428,3.932h1.256l-2.586-3.932C412.18,229.675,413.371,229.066,413.371,227.415z M409.244,228.919h-1.576v-3.022
	h2.434c1.049,0,2.227,0.161,2.227,1.478C412.328,229.12,410.449,228.919,409.244,228.919z"/>
</svg>
